<svg width="25" height="21" viewBox="0 0 25 21" fill="none" xmlns="http://www.w3.org/2000/svg">
<path d="M24.5837 6.4015V16.2397C24.5837 17.2428 24.1999 18.2079 23.5111 18.937C22.8222 19.6661 21.8804 20.104 20.8789 20.1608L20.6566 20.1668H4.34408C3.34099 20.1669 2.37591 19.7831 1.6468 19.0942C0.917685 18.4053 0.479824 17.4636 0.423034 16.4621L0.416992 16.2397V6.4015L12.0798 12.5108C12.2096 12.5788 12.3539 12.6143 12.5003 12.6143C12.6468 12.6143 12.7911 12.5788 12.9208 12.5108L24.5837 6.4015ZM4.34408 0.833496H20.6566C21.63 0.833379 22.5687 1.19478 23.2908 1.84761C24.0128 2.50044 24.4667 3.39816 24.5643 4.36666L12.5003 10.6862L0.436326 4.36666C0.53 3.43662 0.952344 2.5705 1.62744 1.92397C2.30254 1.27745 3.18611 0.89293 4.11933 0.839538L4.34408 0.833496H20.6566H4.34408Z" fill="#C8854E"/>
</svg>
