<svg width="14" height="14" viewBox="0 0 14 14" fill="none" xmlns="http://www.w3.org/2000/svg">
<path d="M12.8305 13.6668C5.72135 13.6768 0.325516 8.21683 0.333016 1.16933C0.333016 0.708496 0.706349 0.333496 1.16635 0.333496H3.36635C3.77885 0.333496 4.12968 0.636829 4.19052 1.04516C4.3356 2.02437 4.62045 2.9777 5.03635 3.876L5.12218 4.061C5.17984 4.18549 5.19224 4.3262 5.15725 4.45886C5.12226 4.59151 5.04207 4.7078 4.93052 4.78766C4.24885 5.27433 3.98885 6.2535 4.51968 7.01683C5.188 7.97793 6.02214 8.81235 6.98302 9.481C7.74718 10.011 8.72635 9.75099 9.21218 9.07016C9.29196 8.95827 9.40834 8.87778 9.54119 8.84263C9.67404 8.80748 9.815 8.81987 9.93968 8.87766L10.1238 8.96266C11.0222 9.37933 11.9755 9.66433 12.9547 9.80933C13.363 9.87016 13.6663 10.221 13.6663 10.6343V12.8335C13.6663 12.943 13.6448 13.0514 13.6028 13.1526C13.5609 13.2537 13.4994 13.3457 13.422 13.423C13.3445 13.5004 13.2525 13.5618 13.1513 13.6036C13.0501 13.6455 12.9417 13.6669 12.8322 13.6668H12.8305Z" fill="#C8854E"/>
</svg>
