<svg width="21" height="21" viewBox="0 0 21 21" fill="none" xmlns="http://www.w3.org/2000/svg">
<path d="M18.9544 20.1668C8.6461 20.1813 0.822144 12.2643 0.833019 2.04545C0.833019 1.37725 1.37435 0.833496 2.04135 0.833496H5.23135C5.82948 0.833496 6.33819 1.27333 6.42639 1.86541C6.63677 3.28527 7.0498 4.66759 7.65285 5.97012L7.77731 6.23837C7.86091 6.41888 7.8789 6.62291 7.82816 6.81527C7.77743 7.00762 7.66115 7.17624 7.49939 7.29204C6.51098 7.9977 6.13398 9.41749 6.90369 10.5243C7.87275 11.9179 9.08224 13.1278 10.4755 14.0974C11.5836 14.8659 13.0034 14.4889 13.7078 13.5017C13.8235 13.3394 13.9922 13.2227 14.1849 13.1717C14.3775 13.1208 14.5819 13.1387 14.7627 13.2225L15.0297 13.3458C16.3323 13.95 17.7146 14.3632 19.1344 14.5735C19.7265 14.6617 20.1664 15.1704 20.1664 15.7697V18.9585C20.1664 19.1173 20.1351 19.2745 20.0743 19.4212C20.0135 19.5679 19.9243 19.7011 19.812 19.8133C19.6997 19.9256 19.5663 20.0145 19.4196 20.0752C19.2729 20.1358 19.1156 20.167 18.9568 20.1668H18.9544Z" fill="#C8854E"/>
</svg>
